<mxfile host="app.diagrams.net" modified="2021-10-23T13:31:23.447Z" agent="5.0 (Macintosh; Intel Mac OS X 10_15_7) AppleWebKit/537.36 (KHTML, like Gecko) Chrome/93.0.4577.82 Safari/537.36" etag="4pCmHOHkJs-TI_sUvedG" version="15.5.8" type="github">
  <diagram id="qTMZLpoKYqZFFdBukqcE" name="Page-1">
    <mxGraphModel dx="1426" dy="769" grid="1" gridSize="1" guides="1" tooltips="1" connect="1" arrows="1" fold="1" page="1" pageScale="1" pageWidth="827" pageHeight="1169" math="0" shadow="0">
      <root>
        <mxCell id="0" />
        <mxCell id="1" parent="0" />
        <mxCell id="gojqi_-S6UOqzGE8VvXa-165" value="" style="ellipse;whiteSpace=wrap;html=1;" vertex="1" parent="1">
          <mxGeometry x="583" y="95" width="108" height="77" as="geometry" />
        </mxCell>
        <mxCell id="gojqi_-S6UOqzGE8VvXa-166" value="" style="ellipse;whiteSpace=wrap;html=1;" vertex="1" parent="1">
          <mxGeometry x="586" y="98" width="108" height="77" as="geometry" />
        </mxCell>
        <mxCell id="gojqi_-S6UOqzGE8VvXa-167" value="" style="ellipse;whiteSpace=wrap;html=1;" vertex="1" parent="1">
          <mxGeometry x="589" y="101" width="108" height="77" as="geometry" />
        </mxCell>
        <mxCell id="gojqi_-S6UOqzGE8VvXa-168" value="" style="ellipse;whiteSpace=wrap;html=1;" vertex="1" parent="1">
          <mxGeometry x="592" y="104" width="108" height="77" as="geometry" />
        </mxCell>
        <mxCell id="gojqi_-S6UOqzGE8VvXa-169" value="" style="ellipse;whiteSpace=wrap;html=1;" vertex="1" parent="1">
          <mxGeometry x="595" y="107" width="108" height="77" as="geometry" />
        </mxCell>
        <mxCell id="gojqi_-S6UOqzGE8VvXa-170" value="" style="ellipse;whiteSpace=wrap;html=1;" vertex="1" parent="1">
          <mxGeometry x="598" y="110" width="108" height="77" as="geometry" />
        </mxCell>
        <mxCell id="gojqi_-S6UOqzGE8VvXa-171" value="" style="ellipse;whiteSpace=wrap;html=1;" vertex="1" parent="1">
          <mxGeometry x="601" y="113" width="108" height="77" as="geometry" />
        </mxCell>
        <mxCell id="gojqi_-S6UOqzGE8VvXa-172" value="" style="ellipse;whiteSpace=wrap;html=1;" vertex="1" parent="1">
          <mxGeometry x="604" y="116" width="108" height="77" as="geometry" />
        </mxCell>
        <mxCell id="gojqi_-S6UOqzGE8VvXa-173" value="" style="ellipse;whiteSpace=wrap;html=1;" vertex="1" parent="1">
          <mxGeometry x="607" y="119" width="108" height="77" as="geometry" />
        </mxCell>
        <mxCell id="gojqi_-S6UOqzGE8VvXa-176" value="Averaged&lt;br&gt;Predictions" style="ellipse;whiteSpace=wrap;html=1;" vertex="1" parent="1">
          <mxGeometry x="610" y="122" width="108" height="77" as="geometry" />
        </mxCell>
        <mxCell id="gojqi_-S6UOqzGE8VvXa-180" value="" style="endArrow=classic;html=1;rounded=0;" edge="1" parent="1">
          <mxGeometry width="50" height="50" relative="1" as="geometry">
            <mxPoint x="686" y="116" as="sourcePoint" />
            <mxPoint x="768" y="116" as="targetPoint" />
          </mxGeometry>
        </mxCell>
        <mxCell id="gojqi_-S6UOqzGE8VvXa-181" value="" style="endArrow=classic;html=1;rounded=0;" edge="1" parent="1">
          <mxGeometry width="50" height="50" relative="1" as="geometry">
            <mxPoint x="689" y="119" as="sourcePoint" />
            <mxPoint x="771" y="119" as="targetPoint" />
          </mxGeometry>
        </mxCell>
        <mxCell id="gojqi_-S6UOqzGE8VvXa-182" value="" style="endArrow=classic;html=1;rounded=0;" edge="1" parent="1">
          <mxGeometry width="50" height="50" relative="1" as="geometry">
            <mxPoint x="692" y="122" as="sourcePoint" />
            <mxPoint x="774" y="122" as="targetPoint" />
          </mxGeometry>
        </mxCell>
        <mxCell id="gojqi_-S6UOqzGE8VvXa-183" value="" style="endArrow=classic;html=1;rounded=0;" edge="1" parent="1">
          <mxGeometry width="50" height="50" relative="1" as="geometry">
            <mxPoint x="695" y="125" as="sourcePoint" />
            <mxPoint x="777" y="125" as="targetPoint" />
          </mxGeometry>
        </mxCell>
        <mxCell id="gojqi_-S6UOqzGE8VvXa-184" value="" style="endArrow=classic;html=1;rounded=0;" edge="1" parent="1">
          <mxGeometry width="50" height="50" relative="1" as="geometry">
            <mxPoint x="698" y="128" as="sourcePoint" />
            <mxPoint x="780" y="128" as="targetPoint" />
          </mxGeometry>
        </mxCell>
        <mxCell id="gojqi_-S6UOqzGE8VvXa-185" value="" style="endArrow=classic;html=1;rounded=0;" edge="1" parent="1">
          <mxGeometry width="50" height="50" relative="1" as="geometry">
            <mxPoint x="701" y="131" as="sourcePoint" />
            <mxPoint x="783" y="131" as="targetPoint" />
          </mxGeometry>
        </mxCell>
        <mxCell id="gojqi_-S6UOqzGE8VvXa-186" value="" style="endArrow=classic;html=1;rounded=0;" edge="1" parent="1">
          <mxGeometry width="50" height="50" relative="1" as="geometry">
            <mxPoint x="710" y="137" as="sourcePoint" />
            <mxPoint x="790" y="137" as="targetPoint" />
          </mxGeometry>
        </mxCell>
        <mxCell id="gojqi_-S6UOqzGE8VvXa-133" value="" style="whiteSpace=wrap;html=1;shape=mxgraph.basic.isocube;isoAngle=15;fontColor=#FFFFFF;strokeColor=#000000;fillColor=default;" vertex="1" parent="1">
          <mxGeometry x="433" y="87" width="100" height="100" as="geometry" />
        </mxCell>
        <mxCell id="gojqi_-S6UOqzGE8VvXa-142" value="" style="whiteSpace=wrap;html=1;shape=mxgraph.basic.isocube;isoAngle=15;fontColor=#FFFFFF;strokeColor=#000000;fillColor=default;" vertex="1" parent="1">
          <mxGeometry x="433" y="90" width="100" height="100" as="geometry" />
        </mxCell>
        <mxCell id="gojqi_-S6UOqzGE8VvXa-144" value="" style="whiteSpace=wrap;html=1;shape=mxgraph.basic.isocube;isoAngle=15;fontColor=#FFFFFF;strokeColor=#000000;fillColor=default;" vertex="1" parent="1">
          <mxGeometry x="433" y="93" width="100" height="100" as="geometry" />
        </mxCell>
        <mxCell id="gojqi_-S6UOqzGE8VvXa-145" value="" style="whiteSpace=wrap;html=1;shape=mxgraph.basic.isocube;isoAngle=15;fontColor=#FFFFFF;strokeColor=#000000;fillColor=default;" vertex="1" parent="1">
          <mxGeometry x="433" y="96" width="100" height="100" as="geometry" />
        </mxCell>
        <mxCell id="gojqi_-S6UOqzGE8VvXa-146" value="" style="whiteSpace=wrap;html=1;shape=mxgraph.basic.isocube;isoAngle=15;fontColor=#FFFFFF;strokeColor=#000000;fillColor=default;" vertex="1" parent="1">
          <mxGeometry x="433" y="99" width="100" height="100" as="geometry" />
        </mxCell>
        <mxCell id="gojqi_-S6UOqzGE8VvXa-147" value="" style="whiteSpace=wrap;html=1;shape=mxgraph.basic.isocube;isoAngle=15;fontColor=#FFFFFF;strokeColor=#000000;fillColor=default;" vertex="1" parent="1">
          <mxGeometry x="433" y="102" width="100" height="100" as="geometry" />
        </mxCell>
        <mxCell id="gojqi_-S6UOqzGE8VvXa-148" value="" style="whiteSpace=wrap;html=1;shape=mxgraph.basic.isocube;isoAngle=15;fontColor=#FFFFFF;strokeColor=#000000;fillColor=default;" vertex="1" parent="1">
          <mxGeometry x="433" y="104.5" width="100" height="100" as="geometry" />
        </mxCell>
        <mxCell id="gojqi_-S6UOqzGE8VvXa-149" value="" style="whiteSpace=wrap;html=1;shape=mxgraph.basic.isocube;isoAngle=15;fontColor=#FFFFFF;strokeColor=#000000;fillColor=default;" vertex="1" parent="1">
          <mxGeometry x="433" y="107" width="100" height="100" as="geometry" />
        </mxCell>
        <mxCell id="gojqi_-S6UOqzGE8VvXa-150" value="" style="whiteSpace=wrap;html=1;shape=mxgraph.basic.isocube;isoAngle=15;fontColor=#FFFFFF;strokeColor=#000000;fillColor=default;" vertex="1" parent="1">
          <mxGeometry x="433" y="110" width="100" height="100" as="geometry" />
        </mxCell>
        <mxCell id="gojqi_-S6UOqzGE8VvXa-151" value="&lt;font color=&quot;#000000&quot;&gt;Predictions&lt;br&gt;&lt;br&gt;&lt;br&gt;&lt;br&gt;&lt;br&gt;&lt;/font&gt;" style="whiteSpace=wrap;html=1;shape=mxgraph.basic.isocube;isoAngle=15;fontColor=#FFFFFF;strokeColor=#000000;fillColor=default;" vertex="1" parent="1">
          <mxGeometry x="433" y="113" width="100" height="100" as="geometry" />
        </mxCell>
        <mxCell id="gojqi_-S6UOqzGE8VvXa-1" value="" style="ellipse;whiteSpace=wrap;html=1;aspect=fixed;" vertex="1" parent="1">
          <mxGeometry x="1016" y="80.43" width="87" height="87" as="geometry" />
        </mxCell>
        <mxCell id="gojqi_-S6UOqzGE8VvXa-2" value="" style="ellipse;whiteSpace=wrap;html=1;aspect=fixed;" vertex="1" parent="1">
          <mxGeometry x="1019" y="83.43" width="87" height="87" as="geometry" />
        </mxCell>
        <mxCell id="gojqi_-S6UOqzGE8VvXa-3" value="" style="ellipse;whiteSpace=wrap;html=1;aspect=fixed;" vertex="1" parent="1">
          <mxGeometry x="1022" y="86.43" width="87" height="87" as="geometry" />
        </mxCell>
        <mxCell id="gojqi_-S6UOqzGE8VvXa-4" value="" style="ellipse;whiteSpace=wrap;html=1;aspect=fixed;" vertex="1" parent="1">
          <mxGeometry x="1025" y="89.43" width="87" height="87" as="geometry" />
        </mxCell>
        <mxCell id="gojqi_-S6UOqzGE8VvXa-5" value="" style="ellipse;whiteSpace=wrap;html=1;aspect=fixed;" vertex="1" parent="1">
          <mxGeometry x="1028" y="92.43" width="87" height="87" as="geometry" />
        </mxCell>
        <mxCell id="gojqi_-S6UOqzGE8VvXa-6" value="" style="ellipse;whiteSpace=wrap;html=1;aspect=fixed;" vertex="1" parent="1">
          <mxGeometry x="1031" y="95.43" width="87" height="87" as="geometry" />
        </mxCell>
        <mxCell id="gojqi_-S6UOqzGE8VvXa-7" value="" style="ellipse;whiteSpace=wrap;html=1;aspect=fixed;" vertex="1" parent="1">
          <mxGeometry x="1034" y="98.43" width="87" height="87" as="geometry" />
        </mxCell>
        <mxCell id="gojqi_-S6UOqzGE8VvXa-8" value="" style="ellipse;whiteSpace=wrap;html=1;aspect=fixed;" vertex="1" parent="1">
          <mxGeometry x="1037" y="101.43" width="87" height="87" as="geometry" />
        </mxCell>
        <mxCell id="gojqi_-S6UOqzGE8VvXa-9" value="" style="ellipse;whiteSpace=wrap;html=1;aspect=fixed;" vertex="1" parent="1">
          <mxGeometry x="1040" y="104.43" width="87" height="87" as="geometry" />
        </mxCell>
        <mxCell id="gojqi_-S6UOqzGE8VvXa-10" value="Performance&lt;br&gt;Measures" style="ellipse;whiteSpace=wrap;html=1;aspect=fixed;" vertex="1" parent="1">
          <mxGeometry x="1043" y="107.43" width="87" height="87" as="geometry" />
        </mxCell>
        <mxCell id="gojqi_-S6UOqzGE8VvXa-11" value="Imputed&amp;nbsp;&lt;br&gt;Datasets" style="whiteSpace=wrap;html=1;aspect=fixed;" vertex="1" parent="1">
          <mxGeometry x="273" y="111" width="80" height="80" as="geometry" />
        </mxCell>
        <mxCell id="gojqi_-S6UOqzGE8VvXa-13" value="" style="rounded=0;whiteSpace=wrap;html=1;" vertex="1" parent="1">
          <mxGeometry x="273" y="249" width="86" height="51" as="geometry" />
        </mxCell>
        <mxCell id="gojqi_-S6UOqzGE8VvXa-14" value="" style="rounded=0;whiteSpace=wrap;html=1;" vertex="1" parent="1">
          <mxGeometry x="276" y="252" width="86" height="51" as="geometry" />
        </mxCell>
        <mxCell id="gojqi_-S6UOqzGE8VvXa-15" value="" style="rounded=0;whiteSpace=wrap;html=1;" vertex="1" parent="1">
          <mxGeometry x="279" y="255" width="86" height="51" as="geometry" />
        </mxCell>
        <mxCell id="gojqi_-S6UOqzGE8VvXa-16" value="" style="rounded=0;whiteSpace=wrap;html=1;" vertex="1" parent="1">
          <mxGeometry x="282" y="258" width="86" height="51" as="geometry" />
        </mxCell>
        <mxCell id="gojqi_-S6UOqzGE8VvXa-17" value="" style="rounded=0;whiteSpace=wrap;html=1;" vertex="1" parent="1">
          <mxGeometry x="285" y="261" width="86" height="51" as="geometry" />
        </mxCell>
        <mxCell id="gojqi_-S6UOqzGE8VvXa-18" value="" style="rounded=0;whiteSpace=wrap;html=1;" vertex="1" parent="1">
          <mxGeometry x="288" y="264" width="86" height="51" as="geometry" />
        </mxCell>
        <mxCell id="gojqi_-S6UOqzGE8VvXa-19" value="" style="rounded=0;whiteSpace=wrap;html=1;" vertex="1" parent="1">
          <mxGeometry x="291" y="267" width="86" height="51" as="geometry" />
        </mxCell>
        <mxCell id="gojqi_-S6UOqzGE8VvXa-20" value="" style="rounded=0;whiteSpace=wrap;html=1;" vertex="1" parent="1">
          <mxGeometry x="294" y="270" width="86" height="51" as="geometry" />
        </mxCell>
        <mxCell id="gojqi_-S6UOqzGE8VvXa-21" value="" style="rounded=0;whiteSpace=wrap;html=1;" vertex="1" parent="1">
          <mxGeometry x="297" y="273" width="87" height="51" as="geometry" />
        </mxCell>
        <mxCell id="gojqi_-S6UOqzGE8VvXa-22" value="Prediction Models" style="rounded=0;whiteSpace=wrap;html=1;" vertex="1" parent="1">
          <mxGeometry x="300" y="276" width="86" height="51" as="geometry" />
        </mxCell>
        <mxCell id="gojqi_-S6UOqzGE8VvXa-23" value="Imputed&amp;nbsp;&lt;br&gt;Datasets" style="whiteSpace=wrap;html=1;aspect=fixed;" vertex="1" parent="1">
          <mxGeometry x="276" y="114" width="80" height="80" as="geometry" />
        </mxCell>
        <mxCell id="gojqi_-S6UOqzGE8VvXa-24" value="Imputed&amp;nbsp;&lt;br&gt;Datasets" style="whiteSpace=wrap;html=1;aspect=fixed;" vertex="1" parent="1">
          <mxGeometry x="279" y="117" width="80" height="80" as="geometry" />
        </mxCell>
        <mxCell id="gojqi_-S6UOqzGE8VvXa-25" value="Imputed&amp;nbsp;&lt;br&gt;Datasets" style="whiteSpace=wrap;html=1;aspect=fixed;" vertex="1" parent="1">
          <mxGeometry x="282" y="120" width="80" height="80" as="geometry" />
        </mxCell>
        <mxCell id="gojqi_-S6UOqzGE8VvXa-26" value="Imputed&amp;nbsp;&lt;br&gt;Datasets" style="whiteSpace=wrap;html=1;aspect=fixed;" vertex="1" parent="1">
          <mxGeometry x="285" y="123" width="80" height="80" as="geometry" />
        </mxCell>
        <mxCell id="gojqi_-S6UOqzGE8VvXa-27" value="Imputed&amp;nbsp;&lt;br&gt;Datasets" style="whiteSpace=wrap;html=1;aspect=fixed;" vertex="1" parent="1">
          <mxGeometry x="288" y="126" width="80" height="80" as="geometry" />
        </mxCell>
        <mxCell id="gojqi_-S6UOqzGE8VvXa-28" value="Imputed&amp;nbsp;&lt;br&gt;Datasets" style="whiteSpace=wrap;html=1;aspect=fixed;" vertex="1" parent="1">
          <mxGeometry x="291" y="129" width="80" height="80" as="geometry" />
        </mxCell>
        <mxCell id="gojqi_-S6UOqzGE8VvXa-29" value="Imputed&amp;nbsp;&lt;br&gt;Datasets" style="whiteSpace=wrap;html=1;aspect=fixed;" vertex="1" parent="1">
          <mxGeometry x="294" y="132" width="80" height="80" as="geometry" />
        </mxCell>
        <mxCell id="gojqi_-S6UOqzGE8VvXa-30" value="Imputed&amp;nbsp;&lt;br&gt;Datasets" style="whiteSpace=wrap;html=1;aspect=fixed;" vertex="1" parent="1">
          <mxGeometry x="297" y="135" width="80" height="80" as="geometry" />
        </mxCell>
        <mxCell id="gojqi_-S6UOqzGE8VvXa-31" value="&lt;font color=&quot;#ffffff&quot;&gt;Imputed&amp;nbsp;&lt;br&gt;Datasets&lt;/font&gt;" style="whiteSpace=wrap;html=1;aspect=fixed;" vertex="1" parent="1">
          <mxGeometry x="300" y="138" width="80" height="80" as="geometry" />
        </mxCell>
        <mxCell id="gojqi_-S6UOqzGE8VvXa-49" value="" style="endArrow=classic;html=1;rounded=0;entryX=0;entryY=0;entryDx=0;entryDy=0;" edge="1" parent="1">
          <mxGeometry width="50" height="50" relative="1" as="geometry">
            <mxPoint x="297" y="216" as="sourcePoint" />
            <mxPoint x="297" y="273" as="targetPoint" />
            <Array as="points" />
          </mxGeometry>
        </mxCell>
        <mxCell id="gojqi_-S6UOqzGE8VvXa-50" value="" style="endArrow=classic;html=1;rounded=0;entryX=0;entryY=0;entryDx=0;entryDy=0;" edge="1" parent="1">
          <mxGeometry width="50" height="50" relative="1" as="geometry">
            <mxPoint x="300" y="219" as="sourcePoint" />
            <mxPoint x="300" y="276" as="targetPoint" />
            <Array as="points" />
          </mxGeometry>
        </mxCell>
        <mxCell id="gojqi_-S6UOqzGE8VvXa-51" value="2. Apply all Models&lt;br&gt;&amp;nbsp;to left-out center Data&lt;br&gt;&amp;nbsp;of each imputed Dataset" style="text;html=1;align=center;verticalAlign=middle;resizable=0;points=[];autosize=1;strokeColor=none;fillColor=none;fontStyle=1" vertex="1" parent="1">
          <mxGeometry x="63" y="224" width="153" height="47" as="geometry" />
        </mxCell>
        <mxCell id="gojqi_-S6UOqzGE8VvXa-53" value="1. Fit Models on&lt;br&gt;&amp;nbsp;7 of 8 Centers" style="text;html=1;align=center;verticalAlign=middle;resizable=0;points=[];autosize=1;strokeColor=none;fillColor=none;fontStyle=1" vertex="1" parent="1">
          <mxGeometry x="300" y="219" width="102" height="33" as="geometry" />
        </mxCell>
        <mxCell id="gojqi_-S6UOqzGE8VvXa-54" value="3. Generate Predictions" style="text;html=1;align=center;verticalAlign=middle;resizable=0;points=[];autosize=1;strokeColor=none;fillColor=none;fontStyle=1" vertex="1" parent="1">
          <mxGeometry x="305" y="61" width="144" height="18" as="geometry" />
        </mxCell>
        <mxCell id="gojqi_-S6UOqzGE8VvXa-74" value="" style="endArrow=classic;html=1;rounded=0;" edge="1" parent="1">
          <mxGeometry width="50" height="50" relative="1" as="geometry">
            <mxPoint x="533" y="111" as="sourcePoint" />
            <mxPoint x="593" y="111" as="targetPoint" />
          </mxGeometry>
        </mxCell>
        <mxCell id="gojqi_-S6UOqzGE8VvXa-75" value="" style="endArrow=classic;html=1;rounded=0;entryX=0.101;entryY=0.196;entryDx=0;entryDy=0;entryPerimeter=0;" edge="1" parent="1" target="gojqi_-S6UOqzGE8VvXa-166">
          <mxGeometry width="50" height="50" relative="1" as="geometry">
            <mxPoint x="533" y="114" as="sourcePoint" />
            <mxPoint x="596" y="113" as="targetPoint" />
          </mxGeometry>
        </mxCell>
        <mxCell id="gojqi_-S6UOqzGE8VvXa-76" value="" style="endArrow=classic;html=1;rounded=0;exitX=0;exitY=0;exitDx=100;exitDy=24.0078759080116;exitPerimeter=0;" edge="1" parent="1" source="gojqi_-S6UOqzGE8VvXa-144">
          <mxGeometry width="50" height="50" relative="1" as="geometry">
            <mxPoint x="533" y="116" as="sourcePoint" />
            <mxPoint x="600" y="116" as="targetPoint" />
          </mxGeometry>
        </mxCell>
        <mxCell id="gojqi_-S6UOqzGE8VvXa-77" value="" style="endArrow=classic;html=1;rounded=0;entryX=0.109;entryY=0.185;entryDx=0;entryDy=0;entryPerimeter=0;" edge="1" parent="1" target="gojqi_-S6UOqzGE8VvXa-168">
          <mxGeometry width="50" height="50" relative="1" as="geometry">
            <mxPoint x="532" y="120" as="sourcePoint" />
            <mxPoint x="614" y="120" as="targetPoint" />
          </mxGeometry>
        </mxCell>
        <mxCell id="gojqi_-S6UOqzGE8VvXa-78" value="" style="endArrow=classic;html=1;rounded=0;entryX=0.113;entryY=0.176;entryDx=0;entryDy=0;entryPerimeter=0;" edge="1" parent="1" target="gojqi_-S6UOqzGE8VvXa-169">
          <mxGeometry width="50" height="50" relative="1" as="geometry">
            <mxPoint x="533" y="123" as="sourcePoint" />
            <mxPoint x="615" y="123" as="targetPoint" />
          </mxGeometry>
        </mxCell>
        <mxCell id="gojqi_-S6UOqzGE8VvXa-79" value="" style="endArrow=classic;html=1;rounded=0;entryX=0.117;entryY=0.184;entryDx=0;entryDy=0;entryPerimeter=0;" edge="1" parent="1" target="gojqi_-S6UOqzGE8VvXa-170">
          <mxGeometry width="50" height="50" relative="1" as="geometry">
            <mxPoint x="532" y="126" as="sourcePoint" />
            <mxPoint x="614" y="126" as="targetPoint" />
          </mxGeometry>
        </mxCell>
        <mxCell id="gojqi_-S6UOqzGE8VvXa-80" value="" style="endArrow=classic;html=1;rounded=0;entryX=0.106;entryY=0.19;entryDx=0;entryDy=0;entryPerimeter=0;" edge="1" parent="1" target="gojqi_-S6UOqzGE8VvXa-171">
          <mxGeometry width="50" height="50" relative="1" as="geometry">
            <mxPoint x="532" y="129" as="sourcePoint" />
            <mxPoint x="614" y="129" as="targetPoint" />
          </mxGeometry>
        </mxCell>
        <mxCell id="gojqi_-S6UOqzGE8VvXa-81" value="" style="endArrow=classic;html=1;rounded=0;exitX=0.992;exitY=0.244;exitDx=0;exitDy=0;exitPerimeter=0;entryX=0.103;entryY=0.201;entryDx=0;entryDy=0;entryPerimeter=0;" edge="1" parent="1" source="gojqi_-S6UOqzGE8VvXa-149" target="gojqi_-S6UOqzGE8VvXa-172">
          <mxGeometry width="50" height="50" relative="1" as="geometry">
            <mxPoint x="535" y="132" as="sourcePoint" />
            <mxPoint x="617" y="132" as="targetPoint" />
          </mxGeometry>
        </mxCell>
        <mxCell id="gojqi_-S6UOqzGE8VvXa-82" value="" style="endArrow=classic;html=1;rounded=0;exitX=0;exitY=0;exitDx=100;exitDy=24.0078759080116;exitPerimeter=0;" edge="1" parent="1" source="gojqi_-S6UOqzGE8VvXa-150" target="gojqi_-S6UOqzGE8VvXa-173">
          <mxGeometry width="50" height="50" relative="1" as="geometry">
            <mxPoint x="538" y="135" as="sourcePoint" />
            <mxPoint x="620" y="135" as="targetPoint" />
            <Array as="points">
              <mxPoint x="618" y="135" />
            </Array>
          </mxGeometry>
        </mxCell>
        <mxCell id="gojqi_-S6UOqzGE8VvXa-83" value="" style="endArrow=classic;html=1;rounded=0;exitX=0.993;exitY=0.237;exitDx=0;exitDy=0;exitPerimeter=0;" edge="1" parent="1" source="gojqi_-S6UOqzGE8VvXa-151">
          <mxGeometry width="50" height="50" relative="1" as="geometry">
            <mxPoint x="541" y="138" as="sourcePoint" />
            <mxPoint x="621" y="138" as="targetPoint" />
          </mxGeometry>
        </mxCell>
        <mxCell id="gojqi_-S6UOqzGE8VvXa-84" value="4. Average Predictions within&lt;br&gt;&amp;nbsp;each Imputed Dataset" style="text;html=1;align=center;verticalAlign=middle;resizable=0;points=[];autosize=1;strokeColor=none;fillColor=none;fontStyle=1" vertex="1" parent="1">
          <mxGeometry x="483" y="61" width="178" height="33" as="geometry" />
        </mxCell>
        <mxCell id="gojqi_-S6UOqzGE8VvXa-85" value="" style="endArrow=classic;html=1;rounded=0;" edge="1" parent="1">
          <mxGeometry width="50" height="50" relative="1" as="geometry">
            <mxPoint x="837" y="95.43" as="sourcePoint" />
            <mxPoint x="937" y="119.43" as="targetPoint" />
          </mxGeometry>
        </mxCell>
        <mxCell id="gojqi_-S6UOqzGE8VvXa-86" value="" style="endArrow=classic;html=1;rounded=0;" edge="1" parent="1">
          <mxGeometry width="50" height="50" relative="1" as="geometry">
            <mxPoint x="840" y="98.43" as="sourcePoint" />
            <mxPoint x="937" y="119.43" as="targetPoint" />
          </mxGeometry>
        </mxCell>
        <mxCell id="gojqi_-S6UOqzGE8VvXa-87" value="" style="endArrow=classic;html=1;rounded=0;" edge="1" parent="1">
          <mxGeometry width="50" height="50" relative="1" as="geometry">
            <mxPoint x="843" y="101.43" as="sourcePoint" />
            <mxPoint x="934" y="119.43" as="targetPoint" />
          </mxGeometry>
        </mxCell>
        <mxCell id="gojqi_-S6UOqzGE8VvXa-88" value="" style="endArrow=classic;html=1;rounded=0;" edge="1" parent="1">
          <mxGeometry width="50" height="50" relative="1" as="geometry">
            <mxPoint x="846" y="104.43" as="sourcePoint" />
            <mxPoint x="940" y="119.43" as="targetPoint" />
          </mxGeometry>
        </mxCell>
        <mxCell id="gojqi_-S6UOqzGE8VvXa-89" value="" style="endArrow=classic;html=1;rounded=0;" edge="1" parent="1">
          <mxGeometry width="50" height="50" relative="1" as="geometry">
            <mxPoint x="848.9999999999998" y="107.43" as="sourcePoint" />
            <mxPoint x="937" y="119.43" as="targetPoint" />
          </mxGeometry>
        </mxCell>
        <mxCell id="gojqi_-S6UOqzGE8VvXa-90" value="" style="endArrow=classic;html=1;rounded=0;" edge="1" parent="1">
          <mxGeometry width="50" height="50" relative="1" as="geometry">
            <mxPoint x="852" y="110.43" as="sourcePoint" />
            <mxPoint x="940" y="119.43" as="targetPoint" />
          </mxGeometry>
        </mxCell>
        <mxCell id="gojqi_-S6UOqzGE8VvXa-91" value="" style="endArrow=classic;html=1;rounded=0;" edge="1" parent="1">
          <mxGeometry width="50" height="50" relative="1" as="geometry">
            <mxPoint x="855" y="113.43" as="sourcePoint" />
            <mxPoint x="937" y="119.43" as="targetPoint" />
          </mxGeometry>
        </mxCell>
        <mxCell id="gojqi_-S6UOqzGE8VvXa-92" value="" style="endArrow=classic;html=1;rounded=0;" edge="1" parent="1">
          <mxGeometry width="50" height="50" relative="1" as="geometry">
            <mxPoint x="858" y="116.43" as="sourcePoint" />
            <mxPoint x="937" y="119.43" as="targetPoint" />
          </mxGeometry>
        </mxCell>
        <mxCell id="gojqi_-S6UOqzGE8VvXa-93" value="" style="endArrow=classic;html=1;rounded=0;" edge="1" parent="1">
          <mxGeometry width="50" height="50" relative="1" as="geometry">
            <mxPoint x="861" y="119.43" as="sourcePoint" />
            <mxPoint x="940" y="119.43" as="targetPoint" />
          </mxGeometry>
        </mxCell>
        <mxCell id="gojqi_-S6UOqzGE8VvXa-94" value="" style="endArrow=classic;html=1;rounded=0;startArrow=none;" edge="1" parent="1" source="gojqi_-S6UOqzGE8VvXa-95">
          <mxGeometry width="50" height="50" relative="1" as="geometry">
            <mxPoint x="863.9999999999998" y="122.43" as="sourcePoint" />
            <mxPoint x="940" y="119.43" as="targetPoint" />
          </mxGeometry>
        </mxCell>
        <mxCell id="gojqi_-S6UOqzGE8VvXa-95" value="" style="verticalLabelPosition=bottom;verticalAlign=top;html=1;strokeWidth=2;shape=mxgraph.arrows2.arrow;dy=0.6;dx=40;notch=0;strokeColor=#000000;fillColor=#000000;" vertex="1" parent="1">
          <mxGeometry x="925" y="110.43" width="15" height="18" as="geometry" />
        </mxCell>
        <mxCell id="gojqi_-S6UOqzGE8VvXa-96" value="" style="endArrow=none;html=1;rounded=0;" edge="1" parent="1" target="gojqi_-S6UOqzGE8VvXa-95">
          <mxGeometry width="50" height="50" relative="1" as="geometry">
            <mxPoint x="863.9999999999998" y="122.43" as="sourcePoint" />
            <mxPoint x="940" y="119.43" as="targetPoint" />
          </mxGeometry>
        </mxCell>
        <mxCell id="gojqi_-S6UOqzGE8VvXa-97" value="5. Combine Performance Measures &lt;br&gt;with Rubin&#39;s Rule" style="text;html=1;align=center;verticalAlign=middle;resizable=0;points=[];autosize=1;strokeColor=none;fillColor=none;fontStyle=1" vertex="1" parent="1">
          <mxGeometry x="823" y="69.43" width="210" height="33" as="geometry" />
        </mxCell>
        <mxCell id="gojqi_-S6UOqzGE8VvXa-98" value="Apparent Perfomance" style="shape=or;whiteSpace=wrap;html=1;strokeColor=#000000;fillColor=#FFFFFF;gradientColor=none;rotation=0;direction=south;flipV=1;" vertex="1" parent="1">
          <mxGeometry x="928" y="106.93" width="87" height="75" as="geometry" />
        </mxCell>
        <mxCell id="gojqi_-S6UOqzGE8VvXa-114" value="Imputed Datasets" style="shape=ext;double=1;rounded=0;whiteSpace=wrap;html=1;fontColor=#FFFFFF;fillColor=#000000;" vertex="1" parent="1">
          <mxGeometry x="300" y="157" width="80" height="60" as="geometry" />
        </mxCell>
        <mxCell id="gojqi_-S6UOqzGE8VvXa-115" value="" style="shape=ext;double=1;rounded=0;whiteSpace=wrap;html=1;fontColor=#FFFFFF;fillColor=#000000;rotation=90;" vertex="1" parent="1">
          <mxGeometry x="267.75" y="182.25" width="61.45" height="2.5" as="geometry" />
        </mxCell>
        <mxCell id="gojqi_-S6UOqzGE8VvXa-122" value="" style="shape=ext;double=1;rounded=0;whiteSpace=wrap;html=1;fontColor=#FFFFFF;fillColor=#000000;rotation=90;" vertex="1" parent="1">
          <mxGeometry x="264.5" y="179.5" width="60.95" height="2.5" as="geometry" />
        </mxCell>
        <mxCell id="gojqi_-S6UOqzGE8VvXa-123" value="" style="shape=ext;double=1;rounded=0;whiteSpace=wrap;html=1;fontColor=#FFFFFF;fillColor=#000000;rotation=90;" vertex="1" parent="1">
          <mxGeometry x="261.5" y="176.5" width="60.95" height="2.5" as="geometry" />
        </mxCell>
        <mxCell id="gojqi_-S6UOqzGE8VvXa-124" value="" style="shape=ext;double=1;rounded=0;whiteSpace=wrap;html=1;fontColor=#FFFFFF;fillColor=#000000;rotation=90;" vertex="1" parent="1">
          <mxGeometry x="258.5" y="173.5" width="60.95" height="2.5" as="geometry" />
        </mxCell>
        <mxCell id="gojqi_-S6UOqzGE8VvXa-125" value="" style="shape=ext;double=1;rounded=0;whiteSpace=wrap;html=1;fontColor=#FFFFFF;fillColor=#000000;rotation=90;" vertex="1" parent="1">
          <mxGeometry x="255" y="170.5" width="61.95" height="2.5" as="geometry" />
        </mxCell>
        <mxCell id="gojqi_-S6UOqzGE8VvXa-126" value="" style="shape=ext;double=1;rounded=0;whiteSpace=wrap;html=1;fontColor=#FFFFFF;fillColor=#000000;rotation=90;" vertex="1" parent="1">
          <mxGeometry x="251.5" y="166.5" width="62.95" height="2.5" as="geometry" />
        </mxCell>
        <mxCell id="gojqi_-S6UOqzGE8VvXa-127" value="" style="shape=ext;double=1;rounded=0;whiteSpace=wrap;html=1;fontColor=#FFFFFF;fillColor=#000000;rotation=90;" vertex="1" parent="1">
          <mxGeometry x="247.5" y="162.75" width="64.95" height="2.5" as="geometry" />
        </mxCell>
        <mxCell id="gojqi_-S6UOqzGE8VvXa-128" value="" style="shape=ext;double=1;rounded=0;whiteSpace=wrap;html=1;fontColor=#FFFFFF;fillColor=#000000;rotation=90;" vertex="1" parent="1">
          <mxGeometry x="245.31" y="160.31" width="64.58" height="1.75" as="geometry" />
        </mxCell>
        <mxCell id="gojqi_-S6UOqzGE8VvXa-129" value="" style="shape=ext;double=1;rounded=0;whiteSpace=wrap;html=1;fontColor=#FFFFFF;fillColor=#000000;rotation=90;" vertex="1" parent="1">
          <mxGeometry x="242.06" y="156.82" width="64.07" height="2.25" as="geometry" />
        </mxCell>
        <mxCell id="gojqi_-S6UOqzGE8VvXa-12" value="" style="endArrow=classic;html=1;rounded=0;entryX=0;entryY=0;entryDx=0;entryDy=0;" edge="1" parent="1" target="gojqi_-S6UOqzGE8VvXa-13">
          <mxGeometry width="50" height="50" relative="1" as="geometry">
            <mxPoint x="273" y="192" as="sourcePoint" />
            <mxPoint x="276" y="246" as="targetPoint" />
            <Array as="points" />
          </mxGeometry>
        </mxCell>
        <mxCell id="gojqi_-S6UOqzGE8VvXa-32" value="" style="curved=1;endArrow=classic;html=1;rounded=0;entryX=-0.01;entryY=0.045;entryDx=0;entryDy=0;exitX=0;exitY=1;exitDx=0;exitDy=0;entryPerimeter=0;strokeColor=#FF3333;" edge="1" parent="1" target="gojqi_-S6UOqzGE8VvXa-31">
          <mxGeometry width="50" height="50" relative="1" as="geometry">
            <mxPoint x="274" y="300" as="sourcePoint" />
            <mxPoint x="274" y="191" as="targetPoint" />
            <Array as="points">
              <mxPoint x="235" y="279" />
              <mxPoint x="217" y="258" />
              <mxPoint x="223" y="201" />
            </Array>
          </mxGeometry>
        </mxCell>
        <mxCell id="gojqi_-S6UOqzGE8VvXa-33" value="" style="curved=1;endArrow=classic;html=1;rounded=0;entryX=-0.015;entryY=0.055;entryDx=0;entryDy=0;exitX=0;exitY=1;exitDx=0;exitDy=0;entryPerimeter=0;strokeColor=#FF3333;" edge="1" parent="1" target="gojqi_-S6UOqzGE8VvXa-31">
          <mxGeometry width="50" height="50" relative="1" as="geometry">
            <mxPoint x="277" y="303" as="sourcePoint" />
            <mxPoint x="277" y="194" as="targetPoint" />
            <Array as="points">
              <mxPoint x="238" y="282" />
              <mxPoint x="220" y="261" />
              <mxPoint x="226" y="204" />
            </Array>
          </mxGeometry>
        </mxCell>
        <mxCell id="gojqi_-S6UOqzGE8VvXa-34" value="" style="curved=1;endArrow=classic;html=1;rounded=0;entryX=0.01;entryY=0.05;entryDx=0;entryDy=0;exitX=0;exitY=1;exitDx=0;exitDy=0;entryPerimeter=0;strokeColor=#FF3333;" edge="1" parent="1" target="gojqi_-S6UOqzGE8VvXa-31">
          <mxGeometry width="50" height="50" relative="1" as="geometry">
            <mxPoint x="280" y="306" as="sourcePoint" />
            <mxPoint x="280" y="197" as="targetPoint" />
            <Array as="points">
              <mxPoint x="241" y="285" />
              <mxPoint x="223" y="264" />
              <mxPoint x="229" y="207" />
            </Array>
          </mxGeometry>
        </mxCell>
        <mxCell id="gojqi_-S6UOqzGE8VvXa-35" value="" style="curved=1;endArrow=classic;html=1;rounded=0;exitX=0;exitY=1;exitDx=0;exitDy=0;strokeColor=#FF3333;" edge="1" parent="1">
          <mxGeometry width="50" height="50" relative="1" as="geometry">
            <mxPoint x="283" y="309" as="sourcePoint" />
            <mxPoint x="300" y="142" as="targetPoint" />
            <Array as="points">
              <mxPoint x="244" y="288" />
              <mxPoint x="226" y="267" />
              <mxPoint x="232" y="210" />
            </Array>
          </mxGeometry>
        </mxCell>
        <mxCell id="gojqi_-S6UOqzGE8VvXa-36" value="" style="curved=1;endArrow=classic;html=1;rounded=0;entryX=0.005;entryY=0.045;entryDx=0;entryDy=0;exitX=0;exitY=1;exitDx=0;exitDy=0;entryPerimeter=0;strokeColor=#FF3333;" edge="1" parent="1" target="gojqi_-S6UOqzGE8VvXa-31">
          <mxGeometry width="50" height="50" relative="1" as="geometry">
            <mxPoint x="286" y="312" as="sourcePoint" />
            <mxPoint x="286" y="203" as="targetPoint" />
            <Array as="points">
              <mxPoint x="247" y="291" />
              <mxPoint x="229" y="270" />
              <mxPoint x="235" y="213" />
            </Array>
          </mxGeometry>
        </mxCell>
        <mxCell id="gojqi_-S6UOqzGE8VvXa-37" value="" style="curved=1;endArrow=classic;html=1;rounded=0;entryX=-0.005;entryY=0.08;entryDx=0;entryDy=0;exitX=0;exitY=1;exitDx=0;exitDy=0;entryPerimeter=0;strokeColor=#FF3333;" edge="1" parent="1" target="gojqi_-S6UOqzGE8VvXa-31">
          <mxGeometry width="50" height="50" relative="1" as="geometry">
            <mxPoint x="289" y="315" as="sourcePoint" />
            <mxPoint x="289" y="206" as="targetPoint" />
            <Array as="points">
              <mxPoint x="250" y="294" />
              <mxPoint x="232" y="273" />
              <mxPoint x="238" y="216" />
            </Array>
          </mxGeometry>
        </mxCell>
        <mxCell id="gojqi_-S6UOqzGE8VvXa-38" value="" style="curved=1;endArrow=classic;html=1;rounded=0;entryX=0.01;entryY=0.055;entryDx=0;entryDy=0;exitX=0;exitY=1;exitDx=0;exitDy=0;entryPerimeter=0;strokeColor=#FF3333;" edge="1" parent="1" target="gojqi_-S6UOqzGE8VvXa-31">
          <mxGeometry width="50" height="50" relative="1" as="geometry">
            <mxPoint x="292" y="318" as="sourcePoint" />
            <mxPoint x="292" y="209" as="targetPoint" />
            <Array as="points">
              <mxPoint x="253" y="297" />
              <mxPoint x="235" y="276" />
              <mxPoint x="241" y="219" />
            </Array>
          </mxGeometry>
        </mxCell>
        <mxCell id="gojqi_-S6UOqzGE8VvXa-39" value="" style="curved=1;endArrow=classic;html=1;rounded=0;exitX=0;exitY=1;exitDx=0;exitDy=0;strokeColor=#FF3333;" edge="1" parent="1">
          <mxGeometry width="50" height="50" relative="1" as="geometry">
            <mxPoint x="295" y="321" as="sourcePoint" />
            <mxPoint x="300" y="144" as="targetPoint" />
            <Array as="points">
              <mxPoint x="256" y="300" />
              <mxPoint x="238" y="279" />
              <mxPoint x="244" y="222" />
            </Array>
          </mxGeometry>
        </mxCell>
        <mxCell id="gojqi_-S6UOqzGE8VvXa-42" value="" style="endArrow=classic;html=1;rounded=0;entryX=0;entryY=0;entryDx=0;entryDy=0;" edge="1" parent="1">
          <mxGeometry width="50" height="50" relative="1" as="geometry">
            <mxPoint x="276" y="195" as="sourcePoint" />
            <mxPoint x="276" y="252" as="targetPoint" />
            <Array as="points" />
          </mxGeometry>
        </mxCell>
        <mxCell id="gojqi_-S6UOqzGE8VvXa-43" value="" style="endArrow=classic;html=1;rounded=0;entryX=0;entryY=0;entryDx=0;entryDy=0;" edge="1" parent="1">
          <mxGeometry width="50" height="50" relative="1" as="geometry">
            <mxPoint x="279" y="198" as="sourcePoint" />
            <mxPoint x="279" y="255" as="targetPoint" />
            <Array as="points" />
          </mxGeometry>
        </mxCell>
        <mxCell id="gojqi_-S6UOqzGE8VvXa-44" value="" style="endArrow=classic;html=1;rounded=0;entryX=0;entryY=0;entryDx=0;entryDy=0;" edge="1" parent="1">
          <mxGeometry width="50" height="50" relative="1" as="geometry">
            <mxPoint x="282" y="201" as="sourcePoint" />
            <mxPoint x="282" y="258" as="targetPoint" />
            <Array as="points" />
          </mxGeometry>
        </mxCell>
        <mxCell id="gojqi_-S6UOqzGE8VvXa-45" value="" style="endArrow=classic;html=1;rounded=0;entryX=0;entryY=0;entryDx=0;entryDy=0;" edge="1" parent="1">
          <mxGeometry width="50" height="50" relative="1" as="geometry">
            <mxPoint x="285" y="204" as="sourcePoint" />
            <mxPoint x="285" y="261" as="targetPoint" />
            <Array as="points" />
          </mxGeometry>
        </mxCell>
        <mxCell id="gojqi_-S6UOqzGE8VvXa-46" value="" style="endArrow=classic;html=1;rounded=0;entryX=0;entryY=0;entryDx=0;entryDy=0;" edge="1" parent="1">
          <mxGeometry width="50" height="50" relative="1" as="geometry">
            <mxPoint x="288" y="207" as="sourcePoint" />
            <mxPoint x="288" y="264" as="targetPoint" />
            <Array as="points" />
          </mxGeometry>
        </mxCell>
        <mxCell id="gojqi_-S6UOqzGE8VvXa-47" value="" style="endArrow=classic;html=1;rounded=0;entryX=0;entryY=0;entryDx=0;entryDy=0;" edge="1" parent="1">
          <mxGeometry width="50" height="50" relative="1" as="geometry">
            <mxPoint x="291" y="210" as="sourcePoint" />
            <mxPoint x="291" y="267" as="targetPoint" />
            <Array as="points" />
          </mxGeometry>
        </mxCell>
        <mxCell id="gojqi_-S6UOqzGE8VvXa-48" value="" style="endArrow=classic;html=1;rounded=0;entryX=0;entryY=0;entryDx=0;entryDy=0;" edge="1" parent="1">
          <mxGeometry width="50" height="50" relative="1" as="geometry">
            <mxPoint x="294" y="213" as="sourcePoint" />
            <mxPoint x="294" y="270" as="targetPoint" />
            <Array as="points" />
          </mxGeometry>
        </mxCell>
        <mxCell id="gojqi_-S6UOqzGE8VvXa-41" value="" style="curved=1;endArrow=classic;html=1;rounded=0;entryX=1.005;entryY=0.519;entryDx=0;entryDy=0;exitX=0;exitY=1;exitDx=0;exitDy=0;strokeColor=#FF3333;entryPerimeter=0;" edge="1" parent="1" target="gojqi_-S6UOqzGE8VvXa-130">
          <mxGeometry width="50" height="50" relative="1" as="geometry">
            <mxPoint x="301" y="327" as="sourcePoint" />
            <mxPoint x="301" y="218" as="targetPoint" />
            <Array as="points">
              <mxPoint x="262" y="306" />
              <mxPoint x="244" y="285" />
              <mxPoint x="250" y="228" />
              <mxPoint x="290" y="162" />
            </Array>
          </mxGeometry>
        </mxCell>
        <mxCell id="gojqi_-S6UOqzGE8VvXa-40" value="" style="curved=1;endArrow=classic;html=1;rounded=0;strokeColor=#FF3333;startArrow=none;entryX=0.843;entryY=0.489;entryDx=0;entryDy=0;entryPerimeter=0;" edge="1" parent="1" target="gojqi_-S6UOqzGE8VvXa-130">
          <mxGeometry width="50" height="50" relative="1" as="geometry">
            <mxPoint x="292" y="151" as="sourcePoint" />
            <mxPoint x="300" y="140" as="targetPoint" />
            <Array as="points" />
          </mxGeometry>
        </mxCell>
        <mxCell id="gojqi_-S6UOqzGE8VvXa-130" value="" style="shape=singleArrow;whiteSpace=wrap;html=1;fontColor=#FFFFFF;fillColor=#FF3333;strokeColor=#FF3333;arrowWidth=0.5555555555555556;arrowSize=1;rotation=-45;" vertex="1" parent="1">
          <mxGeometry x="292.18" y="135.43" width="15.03" height="20.5" as="geometry" />
        </mxCell>
        <mxCell id="gojqi_-S6UOqzGE8VvXa-131" value="" style="curved=1;endArrow=none;html=1;rounded=0;exitX=0;exitY=1;exitDx=0;exitDy=0;strokeColor=#FF3333;" edge="1" parent="1" target="gojqi_-S6UOqzGE8VvXa-130">
          <mxGeometry width="50" height="50" relative="1" as="geometry">
            <mxPoint x="298" y="324" as="sourcePoint" />
            <mxPoint x="300" y="140" as="targetPoint" />
            <Array as="points">
              <mxPoint x="259" y="303" />
              <mxPoint x="241" y="282" />
              <mxPoint x="247" y="225" />
            </Array>
          </mxGeometry>
        </mxCell>
        <mxCell id="gojqi_-S6UOqzGE8VvXa-155" value="" style="endArrow=classic;html=1;rounded=0;fontColor=#FFFFFF;strokeColor=#000000;exitX=1;exitY=0;exitDx=0;exitDy=0;" edge="1" parent="1" source="gojqi_-S6UOqzGE8VvXa-11">
          <mxGeometry width="50" height="50" relative="1" as="geometry">
            <mxPoint x="363" y="167" as="sourcePoint" />
            <mxPoint x="433" y="111" as="targetPoint" />
          </mxGeometry>
        </mxCell>
        <mxCell id="gojqi_-S6UOqzGE8VvXa-156" value="" style="endArrow=classic;html=1;rounded=0;entryX=0;entryY=0;entryDx=0;entryDy=24.0078759080116;entryPerimeter=0;exitX=1;exitY=0;exitDx=0;exitDy=0;" edge="1" parent="1" source="gojqi_-S6UOqzGE8VvXa-23" target="gojqi_-S6UOqzGE8VvXa-142">
          <mxGeometry width="50" height="50" relative="1" as="geometry">
            <mxPoint x="382" y="140" as="sourcePoint" />
            <mxPoint x="438.4" y="141.60000000000002" as="targetPoint" />
          </mxGeometry>
        </mxCell>
        <mxCell id="gojqi_-S6UOqzGE8VvXa-157" value="" style="endArrow=classic;html=1;rounded=0;entryX=0;entryY=0;entryDx=0;entryDy=24.0078759080116;entryPerimeter=0;exitX=1;exitY=0;exitDx=0;exitDy=0;" edge="1" parent="1">
          <mxGeometry width="50" height="50" relative="1" as="geometry">
            <mxPoint x="357" y="117" as="sourcePoint" />
            <mxPoint x="434" y="117.00787590801161" as="targetPoint" />
          </mxGeometry>
        </mxCell>
        <mxCell id="gojqi_-S6UOqzGE8VvXa-158" value="" style="endArrow=classic;html=1;rounded=0;entryX=0;entryY=0;entryDx=0;entryDy=24.0078759080116;entryPerimeter=0;exitX=1;exitY=0;exitDx=0;exitDy=0;" edge="1" parent="1">
          <mxGeometry width="50" height="50" relative="1" as="geometry">
            <mxPoint x="358" y="120" as="sourcePoint" />
            <mxPoint x="435" y="120.00787590801161" as="targetPoint" />
          </mxGeometry>
        </mxCell>
        <mxCell id="gojqi_-S6UOqzGE8VvXa-159" value="" style="endArrow=classic;html=1;rounded=0;entryX=0;entryY=0;entryDx=0;entryDy=24.0078759080116;entryPerimeter=0;exitX=1;exitY=0;exitDx=0;exitDy=0;" edge="1" parent="1">
          <mxGeometry width="50" height="50" relative="1" as="geometry">
            <mxPoint x="357" y="123" as="sourcePoint" />
            <mxPoint x="434" y="123.00787590801161" as="targetPoint" />
          </mxGeometry>
        </mxCell>
        <mxCell id="gojqi_-S6UOqzGE8VvXa-160" value="" style="endArrow=classic;html=1;rounded=0;entryX=0;entryY=0;entryDx=0;entryDy=24.0078759080116;entryPerimeter=0;exitX=1;exitY=0;exitDx=0;exitDy=0;" edge="1" parent="1">
          <mxGeometry width="50" height="50" relative="1" as="geometry">
            <mxPoint x="357" y="125" as="sourcePoint" />
            <mxPoint x="434" y="125.00787590801161" as="targetPoint" />
          </mxGeometry>
        </mxCell>
        <mxCell id="gojqi_-S6UOqzGE8VvXa-161" value="" style="endArrow=classic;html=1;rounded=0;entryX=0;entryY=0;entryDx=0;entryDy=24.0078759080116;entryPerimeter=0;exitX=1;exitY=0;exitDx=0;exitDy=0;" edge="1" parent="1">
          <mxGeometry width="50" height="50" relative="1" as="geometry">
            <mxPoint x="358" y="128" as="sourcePoint" />
            <mxPoint x="435" y="128.0078759080116" as="targetPoint" />
          </mxGeometry>
        </mxCell>
        <mxCell id="gojqi_-S6UOqzGE8VvXa-162" value="" style="endArrow=classic;html=1;rounded=0;entryX=0;entryY=0;entryDx=0;entryDy=24.0078759080116;entryPerimeter=0;exitX=1;exitY=0;exitDx=0;exitDy=0;" edge="1" parent="1">
          <mxGeometry width="50" height="50" relative="1" as="geometry">
            <mxPoint x="357" y="131" as="sourcePoint" />
            <mxPoint x="434" y="131.0078759080116" as="targetPoint" />
          </mxGeometry>
        </mxCell>
        <mxCell id="gojqi_-S6UOqzGE8VvXa-163" value="" style="endArrow=classic;html=1;rounded=0;entryX=0;entryY=0;entryDx=0;entryDy=24.0078759080116;entryPerimeter=0;exitX=1;exitY=0;exitDx=0;exitDy=0;" edge="1" parent="1">
          <mxGeometry width="50" height="50" relative="1" as="geometry">
            <mxPoint x="357" y="133.46" as="sourcePoint" />
            <mxPoint x="434" y="133.46787590801162" as="targetPoint" />
          </mxGeometry>
        </mxCell>
        <mxCell id="gojqi_-S6UOqzGE8VvXa-164" value="" style="endArrow=classic;html=1;rounded=0;entryX=0;entryY=0;entryDx=0;entryDy=24.0078759080116;entryPerimeter=0;exitX=1;exitY=0;exitDx=0;exitDy=0;" edge="1" parent="1">
          <mxGeometry width="50" height="50" relative="1" as="geometry">
            <mxPoint x="357" y="136.96" as="sourcePoint" />
            <mxPoint x="434" y="136.96787590801162" as="targetPoint" />
          </mxGeometry>
        </mxCell>
        <mxCell id="gojqi_-S6UOqzGE8VvXa-177" value="" style="endArrow=classic;html=1;rounded=0;" edge="1" parent="1">
          <mxGeometry width="50" height="50" relative="1" as="geometry">
            <mxPoint x="879" y="219.43" as="sourcePoint" />
            <mxPoint x="961" y="219.43" as="targetPoint" />
          </mxGeometry>
        </mxCell>
        <mxCell id="gojqi_-S6UOqzGE8VvXa-178" value="" style="endArrow=classic;html=1;rounded=0;" edge="1" parent="1">
          <mxGeometry width="50" height="50" relative="1" as="geometry">
            <mxPoint x="882" y="222.43" as="sourcePoint" />
            <mxPoint x="964" y="222.43" as="targetPoint" />
          </mxGeometry>
        </mxCell>
        <mxCell id="gojqi_-S6UOqzGE8VvXa-179" value="" style="endArrow=classic;html=1;rounded=0;" edge="1" parent="1">
          <mxGeometry width="50" height="50" relative="1" as="geometry">
            <mxPoint x="885" y="225.43" as="sourcePoint" />
            <mxPoint x="967" y="225.43" as="targetPoint" />
          </mxGeometry>
        </mxCell>
        <mxCell id="gojqi_-S6UOqzGE8VvXa-187" value="4. Calculate Performance" style="text;html=1;align=center;verticalAlign=middle;resizable=0;points=[];autosize=1;strokeColor=none;fillColor=none;fontStyle=1" vertex="1" parent="1">
          <mxGeometry x="929" y="277" width="153" height="18" as="geometry" />
        </mxCell>
      </root>
    </mxGraphModel>
  </diagram>
</mxfile>
